<svg width="282" height="98" viewBox="0 0 282 98" fill="none" xmlns="http://www.w3.org/2000/svg">
<rect x="-122" width="404" height="98" rx="15" fill="white"/>
<path d="M101.184 67.364C98.792 67.364 96.6773 66.948 94.84 66.116C93.0373 65.284 91.616 64.1227 90.576 62.632C89.536 61.1413 88.9813 59.4773 88.912 57.64H92.76C92.9333 59.408 93.7133 60.968 95.1 62.32C96.4867 63.6373 98.5147 64.296 101.184 64.296C103.645 64.296 105.587 63.672 107.008 62.424C108.464 61.1413 109.192 59.5293 109.192 57.588C109.192 56.028 108.793 54.78 107.996 53.844C107.199 52.8733 106.211 52.1627 105.032 51.712C103.853 51.2267 102.224 50.7067 100.144 50.152C97.7173 49.4933 95.7933 48.852 94.372 48.228C92.9507 47.604 91.7373 46.6333 90.732 45.316C89.7267 43.9987 89.224 42.2133 89.224 39.96C89.224 38.088 89.7093 36.424 90.68 34.968C91.6507 33.4773 93.02 32.316 94.788 31.484C96.556 30.652 98.584 30.236 100.872 30.236C104.235 30.236 106.939 31.068 108.984 32.732C111.064 34.3613 112.26 36.476 112.572 39.076H108.62C108.377 37.5853 107.563 36.268 106.176 35.124C104.789 33.9453 102.917 33.356 100.56 33.356C98.376 33.356 96.556 33.9453 95.1 35.124C93.644 36.268 92.916 37.8453 92.916 39.856C92.916 41.3813 93.3147 42.612 94.112 43.548C94.9093 44.484 95.8973 45.1947 97.076 45.68C98.2893 46.1653 99.9187 46.6853 101.964 47.24C104.321 47.8987 106.228 48.5573 107.684 49.216C109.14 49.84 110.371 50.8107 111.376 52.128C112.381 53.4453 112.884 55.2133 112.884 57.432C112.884 59.1307 112.433 60.7427 111.532 62.268C110.631 63.7933 109.296 65.024 107.528 65.96C105.76 66.896 103.645 67.364 101.184 67.364ZM145.606 51.348C145.606 52.596 145.571 53.5493 145.502 54.208H121.946C122.05 56.3573 122.57 58.1947 123.506 59.72C124.442 61.2453 125.672 62.4067 127.198 63.204C128.723 63.9667 130.387 64.348 132.19 64.348C134.547 64.348 136.523 63.776 138.118 62.632C139.747 61.488 140.822 59.9453 141.342 58.004H145.19C144.496 60.7773 143.006 63.048 140.718 64.816C138.464 66.5493 135.622 67.416 132.19 67.416C129.52 67.416 127.128 66.8267 125.014 65.648C122.899 64.4347 121.235 62.736 120.022 60.552C118.843 58.3333 118.254 55.7507 118.254 52.804C118.254 49.8573 118.843 47.2747 120.022 45.056C121.2 42.8373 122.847 41.1387 124.962 39.96C127.076 38.7813 129.486 38.192 132.19 38.192C134.894 38.192 137.251 38.7813 139.262 39.96C141.307 41.1387 142.867 42.7333 143.942 44.744C145.051 46.72 145.606 48.9213 145.606 51.348ZM141.914 51.244C141.948 49.1293 141.515 47.3267 140.614 45.836C139.747 44.3453 138.551 43.2187 137.026 42.456C135.5 41.6933 133.836 41.312 132.034 41.312C129.33 41.312 127.024 42.1787 125.118 43.912C123.211 45.6453 122.154 48.0893 121.946 51.244H141.914ZM155.905 43.652C156.703 41.884 157.916 40.5147 159.545 39.544C161.209 38.5733 163.237 38.088 165.629 38.088V41.884H164.641C162.007 41.884 159.892 42.5947 158.297 44.016C156.703 45.4373 155.905 47.812 155.905 51.14V67H152.265V38.608H155.905V43.652ZM181.193 63.464L190.761 38.608H194.609L183.221 67H179.113L167.725 38.608H171.625L181.193 63.464ZM201.363 33.252C200.635 33.252 200.011 32.992 199.491 32.472C198.971 31.952 198.711 31.3107 198.711 30.548C198.711 29.7853 198.971 29.1613 199.491 28.676C200.011 28.156 200.635 27.896 201.363 27.896C202.091 27.896 202.715 28.156 203.235 28.676C203.755 29.1613 204.015 29.7853 204.015 30.548C204.015 31.3107 203.755 31.952 203.235 32.472C202.715 32.992 202.091 33.252 201.363 33.252ZM203.183 38.608V67H199.543V38.608H203.183ZM209.762 52.804C209.762 49.8573 210.351 47.292 211.53 45.108C212.708 42.8893 214.338 41.1907 216.418 40.012C218.498 38.7987 220.872 38.192 223.542 38.192C227.043 38.192 229.92 39.0587 232.174 40.792C234.462 42.5253 235.935 44.8827 236.594 47.864H232.694C232.208 45.8187 231.151 44.224 229.522 43.08C227.927 41.9013 225.934 41.312 223.542 41.312C221.635 41.312 219.919 41.7453 218.394 42.612C216.868 43.4787 215.655 44.7787 214.754 46.512C213.887 48.2107 213.454 50.308 213.454 52.804C213.454 55.3 213.887 57.4147 214.754 59.148C215.655 60.8813 216.868 62.1813 218.394 63.048C219.919 63.9147 221.635 64.348 223.542 64.348C225.934 64.348 227.927 63.776 229.522 62.632C231.151 61.4533 232.208 59.824 232.694 57.744H236.594C235.935 60.656 234.462 62.996 232.174 64.764C229.886 66.532 227.008 67.416 223.542 67.416C220.872 67.416 218.498 66.8267 216.418 65.648C214.338 64.4347 212.708 62.736 211.53 60.552C210.351 58.3333 209.762 55.7507 209.762 52.804ZM269.004 51.348C269.004 52.596 268.97 53.5493 268.9 54.208H245.344C245.448 56.3573 245.968 58.1947 246.904 59.72C247.84 61.2453 249.071 62.4067 250.596 63.204C252.122 63.9667 253.786 64.348 255.588 64.348C257.946 64.348 259.922 63.776 261.516 62.632C263.146 61.488 264.22 59.9453 264.74 58.004H268.588C267.895 60.7773 266.404 63.048 264.116 64.816C261.863 66.5493 259.02 67.416 255.588 67.416C252.919 67.416 250.527 66.8267 248.412 65.648C246.298 64.4347 244.634 62.736 243.42 60.552C242.242 58.3333 241.652 55.7507 241.652 52.804C241.652 49.8573 242.242 47.2747 243.42 45.056C244.599 42.8373 246.246 41.1387 248.36 39.96C250.475 38.7813 252.884 38.192 255.588 38.192C258.292 38.192 260.65 38.7813 262.66 39.96C264.706 41.1387 266.266 42.7333 267.34 44.744C268.45 46.72 269.004 48.9213 269.004 51.348ZM265.312 51.244C265.347 49.1293 264.914 47.3267 264.012 45.836C263.146 44.3453 261.95 43.2187 260.424 42.456C258.899 41.6933 257.235 41.312 255.432 41.312C252.728 41.312 250.423 42.1787 248.516 43.912C246.61 45.6453 245.552 48.0893 245.344 51.244H265.312Z" fill="#6B7280"/>
</svg>
