<svg width="299" height="98" viewBox="0 0 299 98" fill="none" xmlns="http://www.w3.org/2000/svg">
<rect x="-105" width="404" height="98" rx="15" fill="white"/>
<path d="M80.496 48.8C80.496 45.2293 81.276 42.04 82.836 39.232C84.396 36.3893 86.528 34.188 89.232 32.628C91.936 31.0333 94.952 30.236 98.28 30.236C102.336 30.236 105.803 31.2067 108.68 33.148C111.592 35.0547 113.707 37.7587 115.024 41.26H110.76C109.72 38.7987 108.125 36.8747 105.976 35.488C103.861 34.1013 101.296 33.408 98.28 33.408C95.6107 33.408 93.2013 34.032 91.052 35.28C88.9373 36.528 87.2733 38.3307 86.06 40.688C84.8467 43.0107 84.24 45.7147 84.24 48.8C84.24 51.8853 84.8467 54.5893 86.06 56.912C87.2733 59.2347 88.9373 61.02 91.052 62.268C93.2013 63.516 95.6107 64.14 98.28 64.14C101.296 64.14 103.861 63.464 105.976 62.112C108.125 60.7253 109.72 58.8187 110.76 56.392H115.024C113.707 59.8587 111.592 62.5453 108.68 64.452C105.768 66.3587 102.301 67.312 98.28 67.312C94.952 67.312 91.936 66.532 89.232 64.972C86.528 63.3773 84.396 61.176 82.836 58.368C81.276 55.56 80.496 52.3707 80.496 48.8ZM134.705 67.416C132.036 67.416 129.627 66.8267 127.477 65.648C125.363 64.4347 123.681 62.736 122.433 60.552C121.22 58.3333 120.613 55.7507 120.613 52.804C120.613 49.8573 121.237 47.292 122.485 45.108C123.733 42.8893 125.432 41.1907 127.581 40.012C129.731 38.7987 132.14 38.192 134.809 38.192C137.479 38.192 139.888 38.7987 142.037 40.012C144.221 41.1907 145.92 42.8893 147.133 45.108C148.381 47.292 149.005 49.8573 149.005 52.804C149.005 55.716 148.381 58.2813 147.133 60.5C145.885 62.7187 144.169 64.4347 141.985 65.648C139.801 66.8267 137.375 67.416 134.705 67.416ZM134.705 64.244C136.577 64.244 138.311 63.828 139.905 62.996C141.5 62.1293 142.783 60.8467 143.753 59.148C144.759 57.4147 145.261 55.3 145.261 52.804C145.261 50.308 144.776 48.2107 143.805 46.512C142.835 44.7787 141.552 43.496 139.957 42.664C138.363 41.7973 136.629 41.364 134.757 41.364C132.885 41.364 131.152 41.7973 129.557 42.664C127.963 43.496 126.68 44.7787 125.709 46.512C124.773 48.2107 124.305 50.308 124.305 52.804C124.305 55.3 124.773 57.4147 125.709 59.148C126.68 60.8467 127.945 62.1293 129.505 62.996C131.1 63.828 132.833 64.244 134.705 64.244ZM168.952 38.088C172.35 38.088 175.123 39.1453 177.272 41.26C179.422 43.34 180.496 46.3733 180.496 50.36V67H176.908V50.776C176.908 47.6907 176.128 45.3333 174.568 43.704C173.043 42.0747 170.946 41.26 168.276 41.26C165.538 41.26 163.354 42.1267 161.724 43.86C160.095 45.5933 159.28 48.1413 159.28 51.504V67H155.64V38.608H159.28V43.444C160.182 41.7107 161.482 40.3933 163.18 39.492C164.879 38.556 166.803 38.088 168.952 38.088ZM193.279 41.676V59.304C193.279 61.0373 193.608 62.2333 194.267 62.892C194.925 63.5507 196.087 63.88 197.751 63.88H201.079V67H197.179C194.613 67 192.707 66.4107 191.459 65.232C190.211 64.0187 189.587 62.0427 189.587 59.304V41.676H185.635V38.608H189.587V31.484H193.279V38.608H201.079V41.676H193.279ZM205.418 52.752C205.418 49.84 205.99 47.292 207.134 45.108C208.313 42.8893 209.925 41.1907 211.97 40.012C214.05 38.7987 216.39 38.192 218.99 38.192C221.694 38.192 224.017 38.816 225.958 40.064C227.934 41.312 229.355 42.9067 230.222 44.848V38.608H233.862V67H230.222V60.708C229.321 62.6493 227.882 64.2613 225.906 65.544C223.965 66.792 221.642 67.416 218.938 67.416C216.373 67.416 214.05 66.8093 211.97 65.596C209.925 64.3827 208.313 62.6667 207.134 60.448C205.99 58.2293 205.418 55.664 205.418 52.752ZM230.222 52.804C230.222 50.516 229.754 48.5053 228.818 46.772C227.882 45.0387 226.599 43.704 224.97 42.768C223.375 41.832 221.607 41.364 219.666 41.364C217.655 41.364 215.853 41.8147 214.258 42.716C212.663 43.6173 211.398 44.9347 210.462 46.668C209.561 48.3667 209.11 50.3947 209.11 52.752C209.11 55.0747 209.561 57.12 210.462 58.888C211.398 60.6213 212.663 61.956 214.258 62.892C215.853 63.7933 217.655 64.244 219.666 64.244C221.607 64.244 223.375 63.776 224.97 62.84C226.599 61.904 227.882 60.5693 228.818 58.836C229.754 57.1027 230.222 55.092 230.222 52.804ZM240.508 52.804C240.508 49.8573 241.097 47.292 242.276 45.108C243.454 42.8893 245.084 41.1907 247.164 40.012C249.244 38.7987 251.618 38.192 254.288 38.192C257.789 38.192 260.666 39.0587 262.92 40.792C265.208 42.5253 266.681 44.8827 267.34 47.864H263.44C262.954 45.8187 261.897 44.224 260.268 43.08C258.673 41.9013 256.68 41.312 254.288 41.312C252.381 41.312 250.665 41.7453 249.14 42.612C247.614 43.4787 246.401 44.7787 245.5 46.512C244.633 48.2107 244.2 50.308 244.2 52.804C244.2 55.3 244.633 57.4147 245.5 59.148C246.401 60.8813 247.614 62.1813 249.14 63.048C250.665 63.9147 252.381 64.348 254.288 64.348C256.68 64.348 258.673 63.776 260.268 62.632C261.897 61.4533 262.954 59.824 263.44 57.744H267.34C266.681 60.656 265.208 62.996 262.92 64.764C260.632 66.532 257.754 67.416 254.288 67.416C251.618 67.416 249.244 66.8267 247.164 65.648C245.084 64.4347 243.454 62.736 242.276 60.552C241.097 58.3333 240.508 55.7507 240.508 52.804ZM278.794 41.676V59.304C278.794 61.0373 279.124 62.2333 279.782 62.892C280.441 63.5507 281.602 63.88 283.266 63.88H286.594V67H282.694C280.129 67 278.222 66.4107 276.974 65.232C275.726 64.0187 275.102 62.0427 275.102 59.304V41.676H271.15V38.608H275.102V31.484H278.794V38.608H286.594V41.676H278.794Z" fill="#6B7280"/>
</svg>
